PathFileType	4	(X/Y/Z)	Patient4_TMGait_0pt7_01_right_33.trc.trc
DataRate	CameraRate	NumFrames	NumMarkers	Units	OrigDataRate	OrigDataStartFrame	OrigNumFrames
86.956521739130	86.956521739130	4	33	mm	86.956521739130	106	       141
Frame#	Time	Sacral			L.Shoulder			Chest			R.Shoulder			Neck			R.ASIS			L.ASIS			R.Thigh.Superior			R.Thigh.Lateral			R.Thigh.Inferior			R.Patella			L.Thigh.Superior			L.Thigh.Lateral			L.Thigh.Inferior			L.Patella			L.Shank.Superior			L.Shank.Lateral			L.Shank.Inferior			R.Shank.Superior			R.Shank.Lateral			R.Shank.Inferior			R.Heel			R.Midfoot.Superior			R.Midfoot.Lateral			R.Toe			L.Heel			L.Midfoot.Lateral			L.Midfoot.Superior			L.Toe			L.Elbow			L.Wrist			R.Elbow			R.Wrist			
		X1	Y1	Z1	X2	Y2	Z2	X3	Y3	Z3	X4	Y4	Z4	X5	Y5	Z5	X6	Y6	Z6	X7	Y7	Z7	X8	Y8	Z8	X9	Y9	Z9	X10	Y10	Z10	X11	Y11	Z11	X12	Y12	Z12	X13	Y13	Z13	X14	Y14	Z14	X15	Y15	Z15	X16	Y16	Z16	X17	Y17	Z17	X18	Y18	Z18	X19	Y19	Z19	X20	Y20	Z20	X21	Y21	Z21	X22	Y22	Z22	X23	Y23	Z23	X24	Y24	Z24	X25	Y25	Z25	X26	Y26	Z26	X27	Y27	Z27	X28	Y28	Z28	X29	Y29	Z29	X30	Y30	Z30	X31	Y31	Z31	X32	Y32	Z32	X33	Y33	Z33	

106	38.767500000000	776.794607722296	1020.824994913821	447.682626757921	1012.717342334034	1428.851428671449	270.786198711276	1093.566624249840	1351.668396752245	442.499214918815	1001.898279862045	1442.277685448521	604.370184022657	1010.650729745420	1492.807528547642	423.321053219890	989.528283582733	950.315920311626	586.064321744537	1002.581028789657	959.138410532459	310.873017590161	1077.591409586952	791.466016757754	556.616141105815	1044.275543437720	667.807127707569	628.080633912552	1138.284474872824	633.934248004730	551.999324060433	1163.928775009691	521.797995551428	574.456882318480	1035.026128533138	746.544171167245	341.293656994841	941.087764124758	638.513161158908	276.760849598898	1015.068081926561	555.143303754897	345.014583998237	1009.593925552414	486.609425856852	355.068573469517	982.151593492675	416.540312023863	343.681171176560	891.723267985319	304.755849380162	289.221618256184	936.608917689380	192.346006158741	362.081331526993	1092.409692941802	441.958099826922	577.334224249637	971.960274350416	391.774604157113	630.976401932959	969.498784253611	282.458301027560	580.215650956628	776.224409848743	204.949085974197	541.502549631410	946.565229909475	157.738046494987	587.470989888346	836.236909228751	146.635350137824	615.193976479973	1019.781956042908	51.010368232866	613.318216007708	805.242395007330	37.615841702015	402.148263377295	878.348889469425	35.455607994978	319.955922713333	961.308089222013	96.047152839409	347.538587074879	1090.067301191574	44.721510443193	316.296123832824	994.811540062697	1091.369002096859	127.550302905554	1173.621396893929	901.067458203599	146.722760861134	905.426704588972	1107.862738865444	725.517736730624	1031.067401245863	880.142708055224	736.922720569930	
107	38.779000000000	776.684764056010	1020.627897224595	446.201016197659	1015.234288021108	1429.204862174507	271.554818518864	1094.368080179107	1351.172054414248	443.733242486761	1001.441845030037	1441.397263522336	605.131080234649	1011.686517256214	1492.609924502948	424.246207585560	988.812477053754	950.613353378970	585.917862561315	1003.474421663530	959.050487349138	310.534665919009	1078.763989234064	794.080755911961	557.100031903361	1046.752563770742	669.901756833584	628.676364158266	1141.475332826128	637.239651854655	553.121687177943	1169.165912073500	526.649472299080	575.785301027100	1033.147068447758	745.281317499290	341.836645960615	938.242574608453	638.273649459443	276.336286527875	1010.430453297143	553.987175943626	345.116605825880	1003.969964740474	485.648029487196	355.148830432012	976.303588332126	415.863160442101	343.643590696697	885.377366801121	304.588552841369	289.039942042064	929.160173563964	191.975781928859	362.165709968432	1101.458791365910	444.478161051705	578.428108824242	984.265844978946	387.721093174889	632.278985243537	987.730064006928	278.473376444175	581.434205587449	799.082428817924	190.485068111419	543.120842965550	971.690233872327	152.648087551464	588.810170681320	862.347161947571	135.456097917845	616.560292012189	1050.701534167258	50.046727472249	614.245311584405	797.117668181764	37.626325536696	402.108590403215	870.245362919426	35.433208341905	319.949436901269	953.239092816620	95.977311397789	347.606218600759	1082.004258911322	44.545485075462	316.323125891981	1001.425604491242	1092.373484862348	126.995549160854	1191.558885028574	913.862766157334	146.840168333198	899.797065694173	1107.165854976978	723.449585881047	1006.045505599061	869.324192548046	740.085787116208	
108	38.790500000000	776.769583399866	1020.328530363589	444.797377929001	1017.754543084939	1429.487921067477	272.466624529715	1095.262644423541	1350.585521409701	445.041097926110	1001.170638372411	1440.416557655494	606.022137438509	1012.763983055537	1492.325714407500	425.302164533862	988.252869862678	950.744140500935	585.849918245914	1004.414763298068	958.784562805714	310.319484874274	1079.688980458183	796.011339127936	557.833722128914	1048.366614982511	671.343130125406	629.371289066290	1143.729935401231	639.613819133767	554.423754496660	1173.119340965703	530.833362612292	577.220587856128	1031.307271937366	743.969562150300	342.533354368932	935.479817633947	637.995184583416	275.930240558842	1005.802135015770	552.796888662142	345.234595543007	998.353190890824	484.676342364538	355.194241207178	970.459010331196	415.168242502519	343.595951385305	879.032582755449	304.413952864745	288.845899363233	921.692768671384	191.603628242383	362.237341457552	1109.626494874773	446.527015873798	579.648350365835	996.406843017107	382.949859092784	633.879119053521	1006.225765243394	274.136210361424	582.965930984564	823.274546761974	175.118665068964	545.220164289643	997.693492048978	147.545114076089	590.511570472616	889.830411086981	123.859155352515	618.349109726355	1082.686133463172	49.783789407431	615.552268432756	789.010087111350	37.658624777477	402.053762158943	862.142553550656	35.413078607191	319.938642413961	945.181326636219	95.905349535505	347.664090376457	1073.941750681253	44.352365092219	316.348796066129	1007.817665207593	1093.275213171314	126.829452979127	1208.432041029182	927.204888423113	147.408108994939	894.761828984141	1106.519235893836	721.716000423567	981.413736540860	860.494976206942	742.596340293071	
109	38.802000000000	777.072959890423	1019.924870965865	443.504530218281	1020.245349251958	1429.681908327680	273.515036659444	1096.246541131204	1349.905296553371	446.411062302321	1001.103595139840	1439.345575043974	607.024887985445	1013.890251945137	1491.945548707760	426.475926724113	987.896283450646	950.698640919883	585.866920634784	1005.383922825283	958.339601422117	310.241538558960	1080.353106278825	797.176433878798	558.757469240364	1049.101448429404	672.060578147859	630.126002009168	1145.005343765265	640.970319094348	555.820454389179	1175.773690142951	534.261870374765	578.647699532149	1029.542161672214	742.606098834077	343.346315417074	932.804648445308	637.672061749499	275.553944433430	1001.217601399456	551.574314015417	345.360472350189	992.785566221823	483.692940104258	355.208173022109	964.649919014166	414.453914040160	343.544262943577	872.708827844438	304.236772778070	288.647469832049	914.231714087606	191.229052630496	362.297118680321	1116.854486712620	448.090542604560	580.930137956857	1008.340989991758	377.614698341240	635.731652547695	1024.840266588776	269.652794708167	584.772179649088	848.716387001140	159.255177299798	547.770337154420	1024.337494445940	142.735639818284	592.547063209633	918.509992487243	112.257427800827	620.550467135915	1115.356871752910	50.558686114513	617.222346522634	780.920389363483	37.717159080560	401.984422042558	854.041401308025	35.399278887165	319.924103139858	937.137809350147	95.831548930532	347.711087043197	1065.878438145535	44.139059599272	316.371516711933	1014.054661200819	1094.050169911165	127.034955291381	1224.205230646620	940.936622455122	148.430241783193	890.213257225932	1105.985408399633	720.335512631526	957.577294706907	853.681132330023	744.406536589676	
